<?xml version="1.0" encoding="utf-8"?>
<!-- Generator: Adobe Illustrator 25.0.1, SVG Export Plug-In . SVG Version: 6.00 Build 0)  -->
<svg version="1.1" id="Layer_1" xmlns="http://www.w3.org/2000/svg" xmlns:xlink="http://www.w3.org/1999/xlink" x="0px" y="0px"
	 viewBox="0 0 777 73" style="enable-background:new 0 0 777 73;" xml:space="preserve">
<style type="text/css">
	.st0{fill:#5C5B5B;}
	.st1{fill:#E20613;}
	.st2{fill:#1D1D1B;}
</style>
<g>
	<g>
		<path class="st0" d="M613.3,70.6h-3.2V60h3.2V70.6z"/>
		<path class="st0" d="M623.2,70.6H620v-8.3h-2.5v8.3h-3.2V60h7.8c0.3,0,0.5,0.1,0.7,0.3c0.2,0.2,0.3,0.5,0.3,0.7V70.6z"/>
		<path class="st0" d="M639.3,69.6c0,0.3-0.1,0.5-0.3,0.7c-0.2,0.2-0.5,0.3-0.7,0.3h-7.8V60h7.8c0.3,0,0.5,0.1,0.7,0.3
			c0.2,0.2,0.3,0.5,0.3,0.7V69.6z M636.1,68.3v-6h-2.5v6H636.1z"/>
		<path class="st0" d="M649.2,70.6h-7.8c-0.3,0-0.5-0.1-0.7-0.3s-0.3-0.5-0.3-0.7V60h3.2v8.3h2.5V60h3.2V70.6z"/>
		<path class="st0" d="M659.1,69.6c0,0.3-0.1,0.5-0.3,0.7c-0.2,0.2-0.5,0.3-0.7,0.3h-7.8V60h7.8c0.3,0,0.5,0.1,0.7,0.3
			c0.2,0.2,0.3,0.5,0.3,0.7v3.2c0,0.3-0.1,0.5-0.3,0.7c-0.2,0.2-0.5,0.3-0.7,0.3c0.3,0,0.5,0.1,0.7,0.3c0.2,0.2,0.3,0.4,0.3,0.6
			V69.6z M655.9,64.4v-2.1h-2.5v2.1H655.9z M655.9,68.3v-2.1h-2.5v2.1H655.9z"/>
		<path class="st0" d="M671.5,70.6h-7.1v-2.3h2.6l-1.7-4.1l-2.7,6.4h-3.5l4.4-10.6h3.5L671.5,70.6z"/>
		<path class="st0" d="M674.7,70.6h-3.2V60h3.2V70.6z"/>
		<path class="st0" d="M690.8,69.6c0,0.3-0.1,0.5-0.3,0.7c-0.2,0.2-0.5,0.3-0.7,0.3H683l-1.1-2.3h5.7v-2.1H683
			c-0.3,0-0.5-0.1-0.7-0.3s-0.3-0.5-0.3-0.7v-4.1c0-0.3,0.1-0.5,0.3-0.7s0.5-0.3,0.7-0.3h7.8v2.3h-5.7v2.1h4.6
			c0.3,0,0.5,0.1,0.7,0.3c0.2,0.2,0.3,0.5,0.3,0.7V69.6z"/>
		<path class="st0" d="M695,70.6h-3.2V60h3.2V70.6z"/>
		<path class="st0" d="M705,70.6h-3.2v-8.3h-2.5v8.3h-3.2V60h7.8c0.3,0,0.5,0.1,0.7,0.3c0.2,0.2,0.3,0.5,0.3,0.7V70.6z"/>
		<path class="st0" d="M714.9,68.3l-1.1,2.3h-6.7c-0.3,0-0.5-0.1-0.7-0.3s-0.3-0.5-0.3-0.7v-8.5c0-0.3,0.1-0.5,0.3-0.7
			s0.5-0.3,0.7-0.3h7.8l-1.1,2.3h-4.6v6H714.9z"/>
		<path class="st0" d="M724.4,68.3l-1.1,2.3h-7.8V60h8.8l-1.1,2.3h-4.6v2.1h4.6v1.8h-4.6v2.1H724.4z"/>
		<path class="st0" d="M735.7,70.6h-3.2v-8.3h-1.8l1.1-2.3h3.9V70.6z"/>
		<path class="st0" d="M745.7,69.6c0,0.3-0.1,0.5-0.3,0.7c-0.2,0.2-0.5,0.3-0.7,0.3h-7.8l1.1-2.3h4.6v-1.4h-4.6
			c-0.3,0-0.5-0.1-0.7-0.3s-0.3-0.5-0.3-0.7v-4.8c0-0.3,0.1-0.5,0.3-0.7s0.5-0.3,0.7-0.3h6.7c0.3,0,0.5,0.1,0.7,0.3
			c0.2,0.2,0.3,0.5,0.3,0.7V69.6z M742.5,65.1v-2.8H740v2.8H742.5z"/>
		<path class="st0" d="M755.6,69.6c0,0.3-0.1,0.5-0.3,0.7c-0.2,0.2-0.5,0.3-0.7,0.3h-7.8l1.1-2.3h4.6v-1.4h-4.6
			c-0.3,0-0.5-0.1-0.7-0.3s-0.3-0.5-0.3-0.7v-4.8c0-0.3,0.1-0.5,0.3-0.7s0.5-0.3,0.7-0.3h6.7c0.3,0,0.5,0.1,0.7,0.3
			c0.2,0.2,0.3,0.5,0.3,0.7V69.6z M752.4,65.1v-2.8h-2.5v2.8H752.4z"/>
		<path class="st0" d="M765.5,69.6c0,0.3-0.1,0.5-0.3,0.7c-0.2,0.2-0.5,0.3-0.7,0.3h-7.8v-2.3h5.7v-2.1h-3.9v-1.8h3.9v-2.1h-5.7V60
			h7.8c0.3,0,0.5,0.1,0.7,0.3c0.2,0.2,0.3,0.5,0.3,0.7v3.2c0,0.3-0.1,0.5-0.3,0.7c-0.2,0.2-0.5,0.3-0.7,0.3c0.3,0,0.5,0.1,0.7,0.3
			c0.2,0.2,0.3,0.4,0.3,0.6V69.6z"/>
	</g>
	<g>
		<path class="st1" d="M52.2,45.5H28.6v-7.7h8.6l-5.7-13.6l-8.8,21.2H11l14.7-35.4h11.8L52.2,45.5z"/>
		<path class="st2" d="M81.6,29.5c0,0.9-0.4,1.8-1.1,2.5c-0.7,0.7-1.5,1.1-2.4,1.1H62.8v12.4H52.2V10.1h26c0.9,0,1.8,0.4,2.4,1.1
			c0.7,0.7,1.1,1.5,1.1,2.5V29.5z M71.1,27.2v-9.4h-8.3v9.4H71.1z"/>
		<path class="st2" d="M114.7,17.7h-9.4v27.7H94.6V17.7h-9.4v-7.7h29.5V17.7z"/>
		<path class="st2" d="M147.7,37.8l-3.5,7.7h-26V10.1h29.5l-3.5,7.7h-15.3v7.1h15.3v5.9h-15.3v7.1H147.7z"/>
		<path class="st2" d="M179.5,37.8l-3.5,7.7h-22.4c-0.9,0-1.8-0.4-2.5-1.1c-0.7-0.7-1.1-1.5-1.1-2.5V13.6c0-0.9,0.4-1.8,1.1-2.5
			c0.7-0.7,1.5-1.1,2.5-1.1h25.9l-3.5,7.7h-15.3v20.1H179.5z"/>
		<path class="st2" d="M211.3,45.5h-10.6V30.7h-8.3v14.7h-10.6V10.1h10.6v14.7h8.3V10.1h10.6V45.5z"/>
		<path class="st2" d="M265,37.8l-3.5,7.7H239c-0.9,0-1.8-0.4-2.5-1.1c-0.7-0.7-1.1-1.5-1.1-2.5V13.6c0-0.9,0.4-1.8,1.1-2.5
			c0.7-0.7,1.5-1.1,2.5-1.1H265l-3.5,7.7h-15.3v20.1H265z"/>
		<path class="st2" d="M296.8,41.9c0,0.9-0.4,1.8-1.1,2.5c-0.7,0.7-1.5,1.1-2.4,1.1h-22.4c-0.9,0-1.8-0.4-2.5-1.1
			c-0.7-0.7-1.1-1.5-1.1-2.5V13.6c0-0.9,0.4-1.8,1.1-2.5c0.7-0.7,1.5-1.1,2.5-1.1h22.4c0.9,0,1.8,0.4,2.4,1.1
			c0.7,0.7,1.1,1.5,1.1,2.5V41.9z M286.2,37.8V17.7h-8.3v20.1H286.2z"/>
		<path class="st2" d="M348.7,45.5h-10.6V17.7h-8.3v27.7h-10.6V17.7h-8.3v27.7h-10.6V10.1h44.8c0.9,0,1.8,0.4,2.5,1.1
			c0.7,0.7,1.1,1.5,1.1,2.5V45.5z"/>
		<path class="st2" d="M381.7,29.5c0,0.9-0.4,1.8-1.1,2.5c-0.7,0.7-1.5,1.1-2.4,1.1h-15.3v12.4h-10.6V10.1h26c0.9,0,1.8,0.4,2.4,1.1
			c0.7,0.7,1.1,1.5,1.1,2.5V29.5z M371.1,27.2v-9.4h-8.3v9.4H371.1z"/>
		<path class="st2" d="M414.7,45.5h-25.9c-0.9,0-1.8-0.4-2.5-1.1c-0.7-0.7-1.1-1.5-1.1-2.5V10.1h10.6v27.7h8.3V10.1h10.6V45.5z"/>
		<path class="st2" d="M447.7,17.7h-9.4v27.7h-10.6V17.7h-9.4v-7.7h29.5V17.7z"/>
		<path class="st2" d="M480.7,37.8l-3.5,7.7h-26V10.1h29.5l-3.5,7.7h-15.3v7.1h15.3v5.9h-15.3v7.1H480.7z"/>
		<path class="st2" d="M513.7,45.5h-9.4l-9.4-20.6h7.1v-7.1h-8.3v27.7H483V10.1h26c0.9,0,1.8,0.4,2.4,1.1c0.7,0.7,1.1,1.5,1.1,2.5
			v13.6c0,0.9-0.4,1.8-1.1,2.5c-0.7,0.7-1.5,1.1-2.4,1.1h-2.1L513.7,45.5z"/>
		<path class="st2" d="M566.1,17.7h-9.4v27.7h-10.6V17.7h-9.4v-7.7h29.5V17.7z"/>
		<path class="st2" d="M600.3,45.5h-9.4l-9.4-20.6h7.1v-7.1h-8.3v27.7h-10.6V10.1h26c0.9,0,1.8,0.4,2.4,1.1c0.7,0.7,1.1,1.5,1.1,2.5
			v13.6c0,0.9-0.4,1.8-1.1,2.5c-0.7,0.7-1.5,1.1-2.4,1.1h-2.1L600.3,45.5z"/>
		<path class="st2" d="M640.4,45.5h-23.6v-7.7h8.6l-5.7-13.6L611,45.5h-11.7l14.7-35.4h11.8L640.4,45.5z"/>
		<path class="st2" d="M651,45.5h-10.6V10.1H651V45.5z"/>
		<path class="st2" d="M684,45.5h-10.6V17.7h-8.3v27.7h-10.6V10.1h26c0.9,0,1.8,0.4,2.4,1.1c0.7,0.7,1.1,1.5,1.1,2.5V45.5z"/>
		<path class="st2" d="M698.2,45.5h-10.6V10.1h10.6V45.5z"/>
		<path class="st2" d="M731.2,45.5h-10.6V17.7h-8.3v27.7h-10.6V10.1h26c0.9,0,1.8,0.4,2.4,1.1c0.7,0.7,1.1,1.5,1.1,2.5V45.5z"/>
		<path class="st2" d="M764.2,45.5h-25.9c-0.9,0-1.8-0.4-2.5-1.1c-0.7-0.7-1.1-1.5-1.1-2.5V13.6c0-0.9,0.4-1.8,1.1-2.5
			c0.7-0.7,1.5-1.1,2.5-1.1h25.9l-3.5,7.7h-15.3v20.1h8.3v-7.1h-4.1v-5.9h14.7V45.5z"/>
	</g>
</g>
</svg>
